<?xml version="1.0" encoding="UTF-8" standalone="no"?>
<svg
   width="16"
   height="16"
   fill="currentColor"
   class="bi bi-file-text"
   viewBox="0 0 16 16"
   version="1.1"
   id="svg6"
   sodipodi:docname="file-text.svg"
   inkscape:version="1.1.1 (3bf5ae0d25, 2021-09-20)"
   xmlns:inkscape="http://www.inkscape.org/namespaces/inkscape"
   xmlns:sodipodi="http://sodipodi.sourceforge.net/DTD/sodipodi-0.dtd"
   xmlns="http://www.w3.org/2000/svg"
   xmlns:svg="http://www.w3.org/2000/svg">
  <defs
     id="defs10" />
  <sodipodi:namedview
     id="namedview8"
     pagecolor="#ffffff"
     bordercolor="#666666"
     borderopacity="1.0"
     inkscape:pageshadow="2"
     inkscape:pageopacity="0.0"
     inkscape:pagecheckerboard="0"
     showgrid="false"
     inkscape:snap-object-midpoints="true"
     inkscape:snap-center="true"
     showguides="true"
     inkscape:guide-bbox="true"
     inkscape:snap-page="true"
     inkscape:snap-midpoints="true"
     inkscape:snap-smooth-nodes="true"
     inkscape:snap-intersection-paths="true"
     inkscape:object-paths="true"
     inkscape:zoom="35.885669"
     inkscape:cx="5.7265199"
     inkscape:cy="8.1787523"
     inkscape:window-width="1920"
     inkscape:window-height="1001"
     inkscape:window-x="-9"
     inkscape:window-y="-9"
     inkscape:window-maximized="1"
     inkscape:current-layer="svg6">
    <sodipodi:guide
       position="8,8"
       orientation="0,1"
       id="guide1055"
       inkscape:label=""
       inkscape:locked="false"
       inkscape:color="rgb(0,0,255)" />
    <sodipodi:guide
       position="2,14"
       orientation="-1,0"
       id="guide1072"
       inkscape:label=""
       inkscape:locked="false"
       inkscape:color="rgb(0,0,255)" />
    <sodipodi:guide
       position="2,14"
       orientation="0,-1"
       id="guide1074" />
    <sodipodi:guide
       position="14,2"
       orientation="-1,0"
       id="guide1076"
       inkscape:label=""
       inkscape:locked="false"
       inkscape:color="rgb(0,0,255)" />
    <sodipodi:guide
       position="14,2"
       orientation="0,-1"
       id="guide1078" />
  </sodipodi:namedview>
  <g
     id="g1070"
     transform="matrix(0.78015484,0,0,0.78015484,-2.3886096,1.106561)"
     style="fill:#5f8dd3;fill-opacity:1">
    <path
       d="m 7.716087,4.0359883 a 0.4,0.4 0 0 0 0,0.8 h 4.8 a 0.4,0.4 0 0 0 0,-0.8 z m -0.4,2 a 0.4,0.4 0 0 1 0.4,-0.4 h 4.8 a 0.4,0.4 0 0 1 0,0.8 h -4.8 a 0.4,0.4 0 0 1 -0.4,-0.4 z m 0.4,1.2 a 0.4,0.4 0 0 0 0,0.8 h 4.8 a 0.4,0.4 0 0 0 0,-0.8 z m 0,1.6 a 0.4,0.4 0 0 0 0,0.8 h 2.4 a 0.4,0.4 0 0 0 0,-0.8 z"
       id="path2"
       style="stroke-width:0.8;fill:#5f8dd3;fill-opacity:1" />
    <path
       d="m 5.316087,2.4359883 a 1.6,1.6 0 0 1 1.6,-1.59999999 h 6.4 a 1.6,1.6 0 0 1 1.6,1.59999999 v 9.5999997 a 1.6,1.6 0 0 1 -1.6,1.6 h -6.4 a 1.6,1.6 0 0 1 -1.6,-1.6 z m 8,-0.8 h -6.4 a 0.8,0.8 0 0 0 -0.8,0.8 v 9.5999997 a 0.8,0.8 0 0 0 0.8,0.8 h 6.4 a 0.8,0.8 0 0 0 0.8,-0.8 V 2.4359883 a 0.8,0.8 0 0 0 -0.8,-0.8 z"
       id="path4"
       style="stroke-width:0.8;fill:#5f8dd3;fill-opacity:1" />
  </g>
  <g
     style="fill:#37c871;fill-opacity:1"
     id="g1066"
     transform="matrix(0.52728867,0,0,0.52728867,6.2224921,6.7497808)">
    <path
       d="M 9.972,2.508 A 0.5,0.5 0 0 0 9.812,1.952 L 9.634,1.823 A 5.009,5.009 0 0 0 7.558,1.04 C 6.215,0.862 4.504,1.229 2.84,3.133 H 1.786 A 0.5,0.5 0 0 0 1.432,3.28 L 0.146,4.567 a 0.5,0.5 0 0 0 0,0.706 l 2.571,2.579 a 0.5,0.5 0 0 0 0.708,0 L 4.711,6.562 A 0.5,0.5 0 0 0 4.857,6.209 V 5.57 l 8.387,8.873 A 0.5,0.5 0 0 0 14,14.5 L 15.5,13 a 0.5,0.5 0 0 0 0.017,-0.689 L 6.388,3.681 C 7.135,3.225 8.16,2.842 9.5,2.842 A 0.5,0.5 0 0 0 9.972,2.508 Z"
       id="path1057"
       style="fill:#37c871;fill-opacity:1" />
  </g>
</svg>
