<?xml version="1.0" encoding="UTF-8" standalone="no"?>
<svg
   width="16"
   height="16"
   fill="currentColor"
   class="bi bi-question-circle"
   viewBox="0 0 16 16"
   version="1.1"
   id="svg6"
   sodipodi:docname="EXPR_UNDEFINED.svg"
   inkscape:version="1.1.1 (3bf5ae0d25, 2021-09-20)"
   xmlns:inkscape="http://www.inkscape.org/namespaces/inkscape"
   xmlns:sodipodi="http://sodipodi.sourceforge.net/DTD/sodipodi-0.dtd"
   xmlns="http://www.w3.org/2000/svg"
   xmlns:svg="http://www.w3.org/2000/svg">
  <defs
     id="defs10" />
  <sodipodi:namedview
     id="namedview8"
     pagecolor="#ffffff"
     bordercolor="#666666"
     borderopacity="1.0"
     inkscape:pageshadow="2"
     inkscape:pageopacity="0.0"
     inkscape:pagecheckerboard="0"
     showgrid="false"
     inkscape:snap-object-midpoints="true"
     inkscape:snap-center="true"
     inkscape:snap-page="true"
     showguides="true"
     inkscape:guide-bbox="true"
     inkscape:zoom="54.5625"
     inkscape:cx="8"
     inkscape:cy="8"
     inkscape:window-width="2560"
     inkscape:window-height="1361"
     inkscape:window-x="1911"
     inkscape:window-y="-9"
     inkscape:window-maximized="1"
     inkscape:current-layer="svg6">
    <sodipodi:guide
       position="8,8"
       orientation="-1,0"
       id="guide827"
       inkscape:label=""
       inkscape:locked="false"
       inkscape:color="rgb(0,0,255)" />
    <sodipodi:guide
       position="8,8"
       orientation="0,-1"
       id="guide829" />
    <sodipodi:guide
       position="2,8"
       orientation="-1,0"
       id="guide910"
       inkscape:label=""
       inkscape:locked="false"
       inkscape:color="rgb(0,0,255)" />
  </sodipodi:namedview>
  <path
     d="m 7.9966236,13.250001 a 5.2500001,5.2500001 0 1 1 0,-10.5 5.25,5.25 0 0 1 0,10.5 z m 0,0.749998 a 6,6 0 1 0 0,-11.999998 6,6 0 0 0 0,11.999998 z"
     id="path2"
     style="fill:#ff9955;stroke-width:0.75" />
  <path
     d="m 5.9378736,6.3395008 a 0.17774999,0.17774999 0 0 0 0.1807501,0.1852498 h 0.6187498 c 0.1035005,0 0.1860001,-0.08475 0.1995002,-0.1874999 0.0675,-0.492 0.405,-0.8505 1.0064999,-0.8505 0.5144999,0 0.9855,0.25725 0.9855,0.876 0,0.4762499 -0.2805,0.6952498 -0.7237501,1.02825 -0.5047499,0.3667498 -0.9044999,0.7950001 -0.876,1.4902501 l 0.00226,0.16275 a 0.1875,0.1875 0 0 0 0.1874981,0.1844998 h 0.6082499 a 0.1875,0.1875 0 0 0 0.1874968,-0.1875 v -0.07875 c 0,-0.5385 0.2047499,-0.6952499 0.7575,-1.1144999 0.4567503,-0.3472499 0.9329997,-0.73275 0.9329997,-1.542 0,-1.1332499 -0.9569997,-1.6807499 -2.0047497,-1.6807499 -0.9502499,0 -1.9912499,0.4424999 -2.0625,1.7145001 z M 7.1056235,10.66175 c 0,0.39975 0.3187501,0.695251 0.7575,0.695251 0.4567501,0 0.7710001,-0.295501 0.7710001,-0.695251 0,-0.413999 -0.3150001,-0.704999 -0.77175,-0.704999 -0.438,0 -0.7567501,0.291 -0.7567501,0.704999 z"
     id="path4"
     style="fill:#ff9955;stroke-width:0.75" />
</svg>
