<?xml version="1.0" encoding="UTF-8" standalone="no"?>
<svg
   width="16"
   height="16"
   fill="currentColor"
   class="bi bi-exclamation-triangle"
   viewBox="0 0 16 16"
   version="1.1"
   id="svg6"
   sodipodi:docname="EXPR_ERROR.svg"
   inkscape:version="1.1.1 (3bf5ae0d25, 2021-09-20)"
   xmlns:inkscape="http://www.inkscape.org/namespaces/inkscape"
   xmlns:sodipodi="http://sodipodi.sourceforge.net/DTD/sodipodi-0.dtd"
   xmlns="http://www.w3.org/2000/svg"
   xmlns:svg="http://www.w3.org/2000/svg">
  <defs
     id="defs10" />
  <sodipodi:namedview
     id="namedview8"
     pagecolor="#ffffff"
     bordercolor="#666666"
     borderopacity="1.0"
     inkscape:pageshadow="2"
     inkscape:pageopacity="0.0"
     inkscape:pagecheckerboard="0"
     showgrid="false"
     showguides="true"
     inkscape:guide-bbox="true"
     inkscape:snap-object-midpoints="true"
     inkscape:snap-center="true"
     inkscape:zoom="54.5625"
     inkscape:cx="8"
     inkscape:cy="8"
     inkscape:window-width="2560"
     inkscape:window-height="1361"
     inkscape:window-x="1911"
     inkscape:window-y="-9"
     inkscape:window-maximized="1"
     inkscape:current-layer="svg6">
    <sodipodi:guide
       position="8,8"
       orientation="-1,0"
       id="guide863"
       inkscape:label=""
       inkscape:locked="false"
       inkscape:color="rgb(0,0,255)" />
    <sodipodi:guide
       position="8,8"
       orientation="0,-1"
       id="guide865" />
    <sodipodi:guide
       position="2,8"
       orientation="-1,0"
       id="guide867"
       inkscape:label=""
       inkscape:locked="false"
       inkscape:color="rgb(0,0,255)" />
  </sodipodi:namedview>
  <path
     d="m 7.9520085,2.764799 a 0.09748279,0.09748279 0 0 1 0.047992,-0.011998 0.09748279,0.09748279 0 0 1 0.047242,0.011998 0.10948068,0.10948068 0 0 1 0.040493,0.042742 l 5.1418415,8.748706 c 0.027,0.04499 0.02625,0.09298 0.0015,0.137226 a 0.12222843,0.12222843 0 0 1 -0.04049,0.04499 0.08698465,0.08698465 0 0 1 -0.04949,0.01275 H 2.8589075 a 0.08623478,0.08623478 0 0 1 -0.049491,-0.01275 0.12222843,0.12222843 0 0 1 -0.040493,-0.04499 0.1319767,0.1319767 0 0 1 0.0015,-0.137226 L 7.9115157,2.8075414 A 0.11023054,0.11023054 0 0 1 7.9520085,2.764799 Z M 8.7348704,2.4273585 a 0.84735044,0.84735044 0 0 0 -1.4697406,0 L 2.1232873,11.176065 c -0.3426895,0.583397 0.068238,1.325016 0.7348703,1.325016 H 13.141092 c 0.666632,0 1.07831,-0.742369 0.73487,-1.325016 z"
     id="path2"
     style="fill:#d35f5f;fill-opacity:1;stroke-width:0.749868" />
  <path
     d="m 7.2501324,10.251478 a 0.74986765,0.74986765 0 1 1 1.4997353,0 0.74986765,0.74986765 0 0 1 -1.4997353,0 z m 0.073487,-4.5029557 a 0.67863022,0.67863022 0 1 1 1.3497618,0 L 8.4109275,8.3783081 a 0.41392694,0.41392694 0 0 1 -0.8248544,0 z"
     id="path4"
     style="fill:#d35f5f;fill-opacity:1;stroke-width:0.749868" />
</svg>
