<?xml version="1.0" encoding="UTF-8" standalone="no"?>
<svg
   viewBox="0 0 24 24"
   version="1.1"
   id="svg8"
   sodipodi:docname="RUN.svg"
   inkscape:version="1.1.1 (3bf5ae0d25, 2021-09-20)"
   xmlns:inkscape="http://www.inkscape.org/namespaces/inkscape"
   xmlns:sodipodi="http://sodipodi.sourceforge.net/DTD/sodipodi-0.dtd"
   xmlns="http://www.w3.org/2000/svg"
   xmlns:svg="http://www.w3.org/2000/svg">
  <defs
     id="defs12" />
  <sodipodi:namedview
     id="namedview10"
     pagecolor="#ffffff"
     bordercolor="#666666"
     borderopacity="1.0"
     inkscape:pageshadow="2"
     inkscape:pageopacity="0.0"
     inkscape:pagecheckerboard="0"
     showgrid="false"
     inkscape:snap-object-midpoints="true"
     inkscape:snap-center="true"
     inkscape:zoom="33.833333"
     inkscape:cx="11.985222"
     inkscape:cy="12.014778"
     inkscape:window-width="1920"
     inkscape:window-height="1001"
     inkscape:window-x="-9"
     inkscape:window-y="-9"
     inkscape:window-maximized="1"
     inkscape:current-layer="svg8" />
  <path
     fill="none"
     d="M 0,0 H 24 V 24 H 0 Z"
     id="path2" />
  <path
     d="M 12,22 C 6.477,22 2,17.523 2,12 2,6.477 6.477,2 12,2 c 5.523,0 10,4.477 10,10 0,5.523 -4.477,10 -10,10 z m 0,-2 c 4.418281,0 7.999997,-3.581722 7.999997,-8 0,-4.4182779 -3.581716,-8 -7.999997,-8 -4.418281,0 -7.9999965,3.5817221 -7.9999965,8 0,4.418278 3.5817155,8 7.9999965,8 z"
     id="path4"
     sodipodi:nodetypes="ssssssssss"
     style="fill:#37c871;fill-opacity:1" />
  <path
     d="m 9.7823051,8.4153355 4.8789999,3.2519995 c 0.237853,0.15829 0.237853,0.50771 0,0.666 l -4.8799999,3.252001 c -0.265361,0.175899 -0.619883,-0.01364 -0.621,-0.332 V 8.7473355 c 5.9e-4,-0.3192083 0.356466,-0.5091615 0.622,-0.332 z"
     id="path856"
     style="fill:#37c871;fill-opacity:1" />
</svg>
