<?xml version="1.0" encoding="UTF-8" standalone="no"?>
<svg
   viewBox="0 0 24 24"
   version="1.1"
   id="svg8"
   sodipodi:docname="SCISSORS.svg"
   inkscape:version="1.1.1 (3bf5ae0d25, 2021-09-20)"
   xmlns:inkscape="http://www.inkscape.org/namespaces/inkscape"
   xmlns:sodipodi="http://sodipodi.sourceforge.net/DTD/sodipodi-0.dtd"
   xmlns="http://www.w3.org/2000/svg"
   xmlns:svg="http://www.w3.org/2000/svg">
  <defs
     id="defs12" />
  <sodipodi:namedview
     id="namedview10"
     pagecolor="#ffffff"
     bordercolor="#666666"
     borderopacity="1.0"
     inkscape:pageshadow="2"
     inkscape:pageopacity="0.0"
     inkscape:pagecheckerboard="0"
     showgrid="false"
     showguides="true"
     inkscape:guide-bbox="true"
     inkscape:snap-object-midpoints="true"
     inkscape:snap-center="true"
     inkscape:zoom="33.833333"
     inkscape:cx="11.985222"
     inkscape:cy="12.014778"
     inkscape:window-width="1920"
     inkscape:window-height="1001"
     inkscape:window-x="-9"
     inkscape:window-y="-9"
     inkscape:window-maximized="1"
     inkscape:current-layer="svg8">
    <sodipodi:guide
       position="12,12"
       orientation="-1,0"
       id="guide947"
       inkscape:label=""
       inkscape:locked="false"
       inkscape:color="rgb(0,0,255)" />
    <sodipodi:guide
       position="12,12"
       orientation="0,-1"
       id="guide949" />
  </sodipodi:namedview>
  <path
     fill="none"
     d="M 0,0 H 24 V 24 H 0 Z"
     id="path2"
     sodipodi:nodetypes="ccccc" />
  <path
     d="M 10,6 C 10,6.732 9.803,7.419 9.46,8.01 L 12,10.585 18.728,3.857 c 0.781,-0.7807639 2.047,-0.7807639 2.828,0 L 9.446,15.967 C 11.836343,20.020997 6.490898,24.143015 3.1734413,20.825559 -0.14401542,17.508102 3.9780035,12.162657 8.032,14.553 L 10.586,12 8.032,9.446 C 4.4975925,11.530477 0.49337468,7.5783912 2.5271413,4.0172328 4.560908,0.4560743 9.9994135,1.8966989 10,6 Z M 8,6 C 8,3.3333345 4,3.3333345 4,6 4,8.6666655 8,8.6666655 8,6 Z m 13.556,14.142 c -0.781,0.780764 -2.047,0.780764 -2.828,0 l -5.317,-5.316 1.415,-1.415 z M 6,20 c 2.6666655,0 2.6666655,-4 0,-4 -2.6666655,0 -2.6666655,4 0,4 z"
     id="path4"
     sodipodi:nodetypes="ccccccscccscssscccccsss"
     style="fill:#4d4d4d" />
  <path
     d="m 16,11 h 2 v 2 h -2 z m 4,0 h 2 v 2 H 20 Z M 6,11 h 2 v 2 H 6 Z m -4,0 h 2 v 2 H 2 Z"
     id="path856"
     style="fill:#b380ff;fill-opacity:1" />
</svg>
