<?xml version="1.0" encoding="UTF-8" standalone="no"?>
<svg
   viewBox="0 0 24 24"
   version="1.1"
   id="svg8"
   sodipodi:docname="TRASH.svg"
   inkscape:version="1.1.1 (3bf5ae0d25, 2021-09-20)"
   xmlns:inkscape="http://www.inkscape.org/namespaces/inkscape"
   xmlns:sodipodi="http://sodipodi.sourceforge.net/DTD/sodipodi-0.dtd"
   xmlns="http://www.w3.org/2000/svg"
   xmlns:svg="http://www.w3.org/2000/svg">
  <defs
     id="defs12" />
  <sodipodi:namedview
     id="namedview10"
     pagecolor="#ffffff"
     bordercolor="#666666"
     borderopacity="1.0"
     inkscape:pageshadow="2"
     inkscape:pageopacity="0.0"
     inkscape:pagecheckerboard="0"
     showgrid="false"
     showguides="true"
     inkscape:guide-bbox="true"
     inkscape:snap-object-midpoints="true"
     inkscape:snap-center="true"
     inkscape:zoom="33.833333"
     inkscape:cx="11.985222"
     inkscape:cy="12.014778"
     inkscape:window-width="1920"
     inkscape:window-height="1001"
     inkscape:window-x="-9"
     inkscape:window-y="-9"
     inkscape:window-maximized="1"
     inkscape:current-layer="svg8">
    <sodipodi:guide
       position="12,10"
       orientation="-1,0"
       id="guide947"
       inkscape:label=""
       inkscape:locked="false"
       inkscape:color="rgb(0,0,255)" />
    <sodipodi:guide
       position="12,10"
       orientation="0,1"
       id="guide949"
       inkscape:label=""
       inkscape:locked="false"
       inkscape:color="rgb(0,0,255)" />
  </sodipodi:namedview>
  <path
     fill="none"
     d="M 0,0 H 24 V 24 H 0 Z"
     id="path2" />
  <path
     d="m 17,6 h 5 v 2 h -2 v 13 c 0,0.552285 -0.447715,1 -1,1 H 5 C 4.4477153,22 4,21.552285 4,21 V 8 H 2 V 6 H 7 V 3 C 7,2.4477153 7.4477153,2 8,2 h 8 c 0.552285,0 1,0.4477153 1,1 z m 1,2 H 6 V 20 H 18 Z M 9,4 v 2 h 6 V 4 Z"
     id="path4"
     sodipodi:nodetypes="ccccssssccccssssccccccccccc"
     style="fill:#4d4d4d" />
  <path
     d="m 13.414,14 1.768,1.768 -1.414,1.414 L 12,15.414 10.232,17.182 8.818,15.768 10.586,14 8.818,12.232 10.232,10.818 12,12.586 l 1.768,-1.768 1.414,1.414 z"
     id="path856"
     style="fill:#d35f5f" />
</svg>
