<?xml version="1.0" encoding="UTF-8" standalone="no"?>
<svg
   width="16"
   height="16"
   fill="currentColor"
   class="bi bi-file-earmark"
   viewBox="0 0 16 16"
   version="1.1"
   id="svg4"
   sodipodi:docname="file-earmark.svg"
   inkscape:version="1.1.1 (3bf5ae0d25, 2021-09-20)"
   xmlns:inkscape="http://www.inkscape.org/namespaces/inkscape"
   xmlns:sodipodi="http://sodipodi.sourceforge.net/DTD/sodipodi-0.dtd"
   xmlns="http://www.w3.org/2000/svg"
   xmlns:svg="http://www.w3.org/2000/svg">
  <defs
     id="defs8" />
  <sodipodi:namedview
     id="namedview6"
     pagecolor="#ffffff"
     bordercolor="#666666"
     borderopacity="1.0"
     inkscape:pageshadow="2"
     inkscape:pageopacity="0.0"
     inkscape:pagecheckerboard="0"
     showgrid="false"
     showguides="true"
     inkscape:guide-bbox="true"
     inkscape:snap-object-midpoints="true"
     inkscape:snap-center="true"
     inkscape:snap-page="true"
     inkscape:snap-midpoints="true"
     inkscape:snap-smooth-nodes="true"
     inkscape:snap-intersection-paths="true"
     inkscape:object-paths="true"
     inkscape:zoom="54.5625"
     inkscape:cx="8"
     inkscape:cy="8"
     inkscape:window-width="2560"
     inkscape:window-height="1361"
     inkscape:window-x="1911"
     inkscape:window-y="-9"
     inkscape:window-maximized="1"
     inkscape:current-layer="svg4">
    <sodipodi:guide
       position="2,14"
       orientation="-1,0"
       id="guide825"
       inkscape:label=""
       inkscape:locked="false"
       inkscape:color="rgb(0,0,255)" />
    <sodipodi:guide
       position="2,14"
       orientation="0,-1"
       id="guide827" />
    <sodipodi:guide
       position="14,2"
       orientation="-1,0"
       id="guide829"
       inkscape:label=""
       inkscape:locked="false"
       inkscape:color="rgb(0,0,255)" />
    <sodipodi:guide
       position="14,2"
       orientation="0,-1"
       id="guide831" />
  </sodipodi:namedview>
  <path
     d="M 11,5.3750001 V 12.5 A 1.5000001,1.5000001 0 0 1 9.5000009,14 H 3.5000001 A 1.5000001,1.5000001 0 0 1 2,12.5 v -9 A 1.5000001,1.5000001 0 0 1 3.5000001,2 h 4.1249998 z m -2.2499991,0 A 1.125,1.125 0 0 1 7.6249999,4.25 V 2.7499999 H 3.5000001 A 0.75000003,0.75000003 0 0 0 2.75,3.5 v 9 a 0.75000003,0.75000003 0 0 0 0.7500001,0.75 H 9.5000009 A 0.75000003,0.75000003 0 0 0 10.25,12.5 V 5.3750001 Z"
     id="path2"
     style="stroke-width:0.75;fill:#5f8dd3;fill-opacity:1" />
  <path
     d="m 12.995461,2.0088271 0.07464,-0.074641 a 0.6048359,0.6048359 0 1 1 0.855117,0.8556172 l -0.07464,0.07414 A 0.75142031,0.75142031 0 0 1 13.821018,3.895393 L 8.665273,9.0516393 a 0.25047344,0.25047344 0 0 1 -0.116721,0.06562 L 6.5447649,9.6182063 A 0.25047344,0.25047344 0 0 1 6.241195,9.3146363 L 6.742142,7.3108492 a 0.25047344,0.25047344 0 0 1 0.065624,-0.11622 L 11.637895,2.3644993 a 0.25047344,0.25047344 0 0 0 -0.321608,0.028053 L 9.667171,4.0421711 A 0.25079027,0.25079027 0 1 1 9.3125,3.6875001 L 10.962618,2.038383 a 0.75142031,0.75142031 0 0 1 1.031951,-0.029055 0.75142031,0.75142031 0 0 1 1.000892,-5.009e-4 z m -0.32261,0.3837253 a 0.25047344,0.25047344 0 0 0 -0.354169,0 L 7.2105268,7.4997063 6.8278039,9.0311003 8.359198,8.6483773 13.467353,3.5412241 a 0.25047344,0.25047344 0 0 0 0,-0.3546708 L 12.673352,2.3925524 Z"
     id="path2-1"
     style="fill:#b380ff;fill-opacity:1;stroke-width:0.500947" />
</svg>
