<?xml version="1.0" encoding="UTF-8" standalone="no"?>
<svg
   viewBox="0 0 24 24"
   version="1.1"
   id="svg8"
   sodipodi:docname="TREEITEM_PROJECT.svg"
   inkscape:version="1.1.1 (3bf5ae0d25, 2021-09-20)"
   xmlns:inkscape="http://www.inkscape.org/namespaces/inkscape"
   xmlns:sodipodi="http://sodipodi.sourceforge.net/DTD/sodipodi-0.dtd"
   xmlns="http://www.w3.org/2000/svg"
   xmlns:svg="http://www.w3.org/2000/svg">
  <defs
     id="defs12" />
  <sodipodi:namedview
     id="namedview10"
     pagecolor="#ffffff"
     bordercolor="#666666"
     borderopacity="1.0"
     inkscape:pageshadow="2"
     inkscape:pageopacity="0.0"
     inkscape:pagecheckerboard="0"
     showgrid="false"
     showguides="true"
     inkscape:guide-bbox="true"
     inkscape:snap-object-midpoints="true"
     inkscape:snap-center="true"
     inkscape:zoom="33.833333"
     inkscape:cx="11.985222"
     inkscape:cy="12.014778"
     inkscape:window-width="1920"
     inkscape:window-height="1001"
     inkscape:window-x="-9"
     inkscape:window-y="-9"
     inkscape:window-maximized="1"
     inkscape:current-layer="svg8">
    <sodipodi:guide
       position="12,12"
       orientation="0,1"
       id="guide831"
       inkscape:label=""
       inkscape:locked="false"
       inkscape:color="rgb(0,0,255)" />
    <sodipodi:guide
       position="12,12"
       orientation="1,0"
       id="guide833" />
  </sodipodi:namedview>
  <path
     fill="none"
     d="M 0,0 H 24 V 24 H 0 Z"
     id="path2" />
  <path
     fill-rule="nonzero"
     d="M 15,4 H 5 V 20 H 19 V 8 H 15 Z M 3,2.992 C 3,2.444 3.447,2 3.999,2 H 16 l 5,5 v 13.993 c 0.0039,0.55229 -0.44071,1.003147 -0.993,1.007 H 3.993 C 3.4465555,21.996192 3.0043584,21.55444 3,21.008 Z"
     id="path4"
     sodipodi:nodetypes="cccccccssccccccs"
     style="fill:#b380ff;fill-opacity:1" />
  <path
     d="m 8.595,12.812 c -0.126795,-0.533571 -0.126795,-1.089429 0,-1.623 l -0.992,-0.573 1,-1.7320001 0.992,0.573 C 9.9931626,9.0798802 10.474461,8.8017206 11,8.6449999 V 7.5 h 2 v 1.1449999 c 0.532,0.158 1.012,0.44 1.405,0.812 l 0.992,-0.573 1,1.7320001 -0.992,0.573 c 0.126637,0.533251 0.126637,1.088749 0,1.622 l 0.992,0.573 -1,1.732 -0.992,-0.573 C 14.006837,14.92012 13.525539,15.198279 13,15.355 V 16.5 H 11 V 15.355 C 10.474461,15.198279 9.9931626,14.92012 9.595,14.543 l -0.992,0.573 -1,-1.732 z M 12,13.5 c 1.999999,0 1.999999,-3 0,-3 -1.999999,0 -1.999999,3 0,3 z"
     style="fill-rule:nonzero;fill:#37c871;fill-opacity:1"
     id="path898" />
</svg>
