<?xml version="1.0" encoding="UTF-8" standalone="no"?>
<svg
   viewBox="0 0 24 24"
   version="1.1"
   id="svg8"
   sodipodi:docname="TREEITEM_ERROR.svg"
   inkscape:version="1.1.1 (3bf5ae0d25, 2021-09-20)"
   xmlns:inkscape="http://www.inkscape.org/namespaces/inkscape"
   xmlns:sodipodi="http://sodipodi.sourceforge.net/DTD/sodipodi-0.dtd"
   xmlns="http://www.w3.org/2000/svg"
   xmlns:svg="http://www.w3.org/2000/svg">
  <defs
     id="defs12" />
  <sodipodi:namedview
     id="namedview10"
     pagecolor="#ffffff"
     bordercolor="#666666"
     borderopacity="1.0"
     inkscape:pageshadow="2"
     inkscape:pageopacity="0.0"
     inkscape:pagecheckerboard="0"
     showgrid="false"
     showguides="true"
     inkscape:guide-bbox="true"
     inkscape:snap-object-midpoints="true"
     inkscape:snap-center="true"
     inkscape:zoom="33.833333"
     inkscape:cx="11.985222"
     inkscape:cy="12.014778"
     inkscape:window-width="1920"
     inkscape:window-height="1001"
     inkscape:window-x="-9"
     inkscape:window-y="-9"
     inkscape:window-maximized="1"
     inkscape:current-layer="svg8">
    <sodipodi:guide
       position="12,12"
       orientation="0,1"
       id="guide831"
       inkscape:label=""
       inkscape:locked="false"
       inkscape:color="rgb(0,0,255)" />
    <sodipodi:guide
       position="12,12"
       orientation="1,0"
       id="guide833" />
  </sodipodi:namedview>
  <path
     fill="none"
     d="M 0,0 H 24 V 24 H 0 Z"
     id="path2" />
  <path
     fill-rule="nonzero"
     d="M 15,4 H 5 V 20 H 19 V 8 H 15 Z M 3,2.992 C 3,2.444 3.447,2 3.999,2 H 16 l 5,5 v 13.993 c 0.0039,0.55229 -0.44071,1.003147 -0.993,1.007 H 3.993 C 3.4465555,21.996192 3.0043584,21.55444 3,21.008 Z"
     id="path4"
     sodipodi:nodetypes="cccccccssccccccs"
     style="fill:#4d4d4d" />
  <path
     d="m 10.96517,15.252084 h 2 v 2 h -2 z m 2,-1.645 v 0.645 h -2 v -1.5 c 0,-0.552285 0.447715,-1 1,-1 1.266191,-7.9e-5 1.962582,-1.472 1.159797,-2.4510593 -0.802785,-0.9790592 -2.382624,-0.5845725 -2.630796,0.6570591 l -1.9620005,-0.393 C 9.0665084,6.8944618 12.311461,5.8299573 14.323956,7.6649453 16.33645,9.4999334 15.575248,12.829117 12.96517,13.607084 Z"
     style="fill-rule:nonzero;fill:#d35f5f;fill-opacity:1"
     id="path974" />
</svg>
