<?xml version="1.0" encoding="UTF-8" standalone="no"?>
<svg
   width="16"
   height="16"
   fill="currentColor"
   class="bi bi-gear"
   viewBox="0 0 16 16"
   version="1.1"
   id="svg6"
   sodipodi:docname="TREEITEM_CONFIGS.svg"
   inkscape:version="1.1.1 (3bf5ae0d25, 2021-09-20)"
   xmlns:inkscape="http://www.inkscape.org/namespaces/inkscape"
   xmlns:sodipodi="http://sodipodi.sourceforge.net/DTD/sodipodi-0.dtd"
   xmlns="http://www.w3.org/2000/svg"
   xmlns:svg="http://www.w3.org/2000/svg">
  <defs
     id="defs10" />
  <sodipodi:namedview
     id="namedview8"
     pagecolor="#ffffff"
     bordercolor="#666666"
     borderopacity="1.0"
     inkscape:pageshadow="2"
     inkscape:pageopacity="0.0"
     inkscape:pagecheckerboard="0"
     showgrid="false"
     inkscape:zoom="35.885669"
     inkscape:cx="11.71777"
     inkscape:cy="9.2934034"
     inkscape:window-width="1920"
     inkscape:window-height="1001"
     inkscape:window-x="-9"
     inkscape:window-y="-9"
     inkscape:window-maximized="1"
     inkscape:current-layer="svg6"
     showguides="true"
     inkscape:guide-bbox="true"
     inkscape:snap-object-midpoints="true">
    <sodipodi:guide
       position="8,8"
       orientation="0,1"
       id="guide936"
       inkscape:label=""
       inkscape:locked="false"
       inkscape:color="rgb(0,0,255)" />
    <sodipodi:guide
       position="8,8"
       orientation="1,0"
       id="guide938" />
  </sodipodi:namedview>
  <path
     d="m 7.9999998,5.7056462 a 2.2943562,2.2943562 0 1 0 0,4.5887128 2.2943562,2.2943562 0 0 0 0,-4.5887128 z M 6.4124696,8.000002 a 1.5875303,1.5875303 0 1 1 3.1750603,0 1.5875303,1.5875303 0 0 1 -3.1750603,0 z"
     id="path2"
     style="fill:#b380ff;fill-opacity:1;stroke-width:0.706826" />
  <path
     d="m 9.2694586,3.2946643 c -0.372497,-1.2652178 -2.1664204,-1.2652178 -2.5389175,0 L 6.6640995,3.5201415 A 0.61705872,0.61705872 0 0 1 5.7770335,3.8876909 L 5.5706404,3.7745988 C 4.4114465,3.1441104 3.1441082,4.4121555 3.7753035,5.5706426 l 0.1123852,0.2063931 a 0.61705872,0.61705872 0 0 1 -0.3675493,0.887066 l -0.2254773,0.066441 c -1.2652178,0.3724971 -1.2652178,2.1664208 0,2.5389179 l 0.2254773,0.066438 a 0.61705872,0.61705872 0 0 1 0.3675493,0.8870664 l -0.1130921,0.206393 c -0.6304884,1.159193 0.6368499,2.42724 1.7960438,1.795337 l 0.2063931,-0.112386 a 0.61705872,0.61705872 0 0 1 0.887066,0.36755 l 0.066441,0.225477 c 0.372497,1.265218 2.1664209,1.265218 2.5389178,0 l 0.066438,-0.225477 a 0.61705872,0.61705872 0 0 1 0.8870667,-0.36755 l 0.206393,0.113093 c 1.159193,0.631196 2.427239,-0.637558 1.795337,-1.796044 l -0.112386,-0.206392 a 0.61705872,0.61705872 0 0 1 0.367551,-0.8870669 l 0.225479,-0.066438 c 1.265219,-0.3724971 1.265219,-2.1664203 0,-2.5389174 L 12.47986,6.6641017 A 0.61705872,0.61705872 0 0 1 12.112311,5.7770357 L 12.225403,5.5706426 C 12.856599,4.4114486 11.587846,3.1441104 10.429359,3.7753056 L 10.222967,3.8876909 A 0.61705872,0.61705872 0 0 1 9.3359006,3.5201415 Z M 7.4083869,3.4946959 c 0.1738791,-0.5901994 1.0093469,-0.5901994 1.1832257,0 l 0.066438,0.2254773 a 1.3238843,1.3238843 0 0 0 1.9034814,0.7881105 l 0.205687,-0.1130921 c 0.540014,-0.2933325 1.130921,0.2968668 0.83688,0.8375884 l -0.112384,0.206393 a 1.3238843,1.3238843 0 0 0 0.788817,1.9027745 l 0.22477,0.066441 c 0.5902,0.1738791 0.5902,1.0093474 0,1.1832252 l -0.225477,0.066439 a 1.3238843,1.3238843 0 0 0 -0.78811,1.9034813 l 0.113092,0.205686 c 0.293333,0.540015 -0.296867,1.130921 -0.837588,0.836881 l -0.205687,-0.112385 a 1.3238843,1.3238843 0 0 0 -1.903481,0.788818 l -0.066438,0.224771 c -0.1738793,0.590199 -1.0093471,0.590199 -1.1832262,0 L 7.3419453,12.279832 A 1.3238843,1.3238843 0 0 0 5.4391709,11.491721 L 5.2327778,11.604813 C 4.6927631,11.898146 4.1018569,11.307946 4.3958963,10.767225 L 4.5082816,10.561538 A 1.3238843,1.3238843 0 0 0 3.7201711,8.6573498 L 3.4946937,8.5909086 c -0.5901993,-0.1738797 -0.5901993,-1.0093473 0,-1.1832264 L 3.7201711,7.3412406 A 1.3238843,1.3238843 0 0 0 4.5082816,5.439173 L 4.3951895,5.23278 C 4.1018569,4.6927652 4.6920562,4.1018591 5.2327778,4.3958985 L 5.4391709,4.5082837 A 1.3238843,1.3238843 0 0 0 7.3419453,3.7201732 Z"
     id="path4"
     style="fill:#b380ff;fill-opacity:1;stroke-width:0.706826" />
</svg>
