<?xml version="1.0" encoding="UTF-8" standalone="no"?>
<svg
   width="16"
   height="16"
   fill="currentColor"
   class="bi bi-boxes"
   viewBox="0 0 16 16"
   version="1.1"
   id="svg4"
   sodipodi:docname="TREEITEM_INSTANCES.svg"
   inkscape:version="1.1.1 (3bf5ae0d25, 2021-09-20)"
   xmlns:inkscape="http://www.inkscape.org/namespaces/inkscape"
   xmlns:sodipodi="http://sodipodi.sourceforge.net/DTD/sodipodi-0.dtd"
   xmlns="http://www.w3.org/2000/svg"
   xmlns:svg="http://www.w3.org/2000/svg">
  <defs
     id="defs8" />
  <sodipodi:namedview
     id="namedview6"
     pagecolor="#ffffff"
     bordercolor="#666666"
     borderopacity="1.0"
     inkscape:pageshadow="2"
     inkscape:pageopacity="0.0"
     inkscape:pagecheckerboard="0"
     showgrid="false"
     showguides="true"
     inkscape:guide-bbox="true"
     inkscape:snap-object-midpoints="true"
     inkscape:snap-center="true"
     inkscape:zoom="35.885669"
     inkscape:cx="12.553758"
     inkscape:cy="8.5688802"
     inkscape:window-width="1920"
     inkscape:window-height="1001"
     inkscape:window-x="-9"
     inkscape:window-y="-9"
     inkscape:window-maximized="1"
     inkscape:current-layer="svg4">
    <sodipodi:guide
       position="8,8"
       orientation="-1,0"
       id="guide1225"
       inkscape:label=""
       inkscape:locked="false"
       inkscape:color="rgb(0,0,255)" />
    <sodipodi:guide
       position="8,8"
       orientation="0,-1"
       id="guide938" />
  </sodipodi:namedview>
  <g
     id="g943"
     transform="matrix(0.77548775,0,0,0.86478647,1.7960996,0.80073885)">
    <path
       d="m 8.0925044,1.9021368 a 0.24866835,0.24866835 0 0 0 -0.1850088,0 L 4.9393897,3.0892795 8,4.3132252 11.060609,3.0892795 Z M 11.481357,3.4568115 8.2486686,4.7498869 V 8.6897878 L 11.481357,7.3967126 V 3.4573088 Z M 7.7513314,8.690285 V 4.7493895 L 4.5186428,3.4568115 V 7.3972097 Z M 7.722985,1.440111 a 0.74600506,0.74600506 0 0 1 0.5540328,0 l 3.5455132,1.4184043 a 0.24866835,0.24866835 0 0 1 0.156165,0.2307642 V 7.3972097 A 0.49733671,0.49733671 0 0 1 11.665867,7.8587381 L 8.0925044,9.2880836 a 0.24866835,0.24866835 0 0 1 -0.1850088,0 L 4.3346282,7.8587381 A 0.49733671,0.49733671 0 0 1 4.0213061,7.3972097 V 3.0892795 A 0.24866835,0.24866835 0 0 1 4.1774698,2.8585153 Z"
       id="path2-6"
       style="fill:#d35f5f;fill-opacity:1;stroke-width:0.497336" />
    <path
       d="m 11.850876,7.8587385 a 0.24866835,0.24866835 0 0 0 -0.185009,0 L 8.6977615,9.0458812 11.758372,10.269827 14.818981,9.0458812 Z m 3.388853,1.5546746 -3.232689,1.2930749 v 3.939902 l 3.232689,-1.293076 V 9.4139104 Z M 11.509703,14.646887 V 10.705991 L 8.2770146,9.4134131 v 3.9403989 z m -0.02835,-7.2501744 a 0.74600506,0.74600506 0 0 1 0.554032,0 l 3.545514,1.4184043 a 0.24866835,0.24866835 0 0 1 0.156165,0.2307643 v 4.3079308 a 0.49733671,0.49733671 0 0 1 -0.312829,0.461528 l -3.573363,1.429346 a 0.24866835,0.24866835 0 0 1 -0.185009,0 L 8.093,13.81534 A 0.49733671,0.49733671 0 0 1 7.7796779,13.353812 V 9.0458812 A 0.24866835,0.24866835 0 0 1 7.9358416,8.8151169 Z"
       id="path2-6-7"
       style="fill:#5f8dd3;fill-opacity:1;stroke-width:0.497336" />
    <path
       d="m 4.1491198,7.8592356 a 0.24866835,0.24866835 0 0 1 0.185009,0 L 7.3022343,9.0463783 4.2416238,10.270324 1.1810148,9.0463783 Z m -3.388853,1.5546746 3.232689,1.2930748 v 3.939902 L 0.7602668,13.353811 V 9.4144075 Z m 3.730026,5.2334738 V 10.706488 L 7.7229803,9.4139102 v 3.9403988 z m 0.02835,-7.2501743 a 0.74600506,0.74600506 0 0 0 -0.554032,0 L 0.4190968,8.815614 a 0.24866835,0.24866835 0 0 0 -0.156165,0.2307643 v 4.3079307 a 0.49733671,0.49733671 0 0 0 0.312829,0.461528 l 3.573363,1.429346 a 0.24866835,0.24866835 0 0 0 0.185009,0 l 3.5728625,-1.429346 a 0.49733671,0.49733671 0 0 0 0.313322,-0.461528 V 9.0463783 A 0.24866835,0.24866835 0 0 0 8.0641533,8.815614 Z"
       id="path2-6-7-2"
       style="fill:#37c871;fill-opacity:1;stroke-width:0.497336" />
  </g>
</svg>
