<?xml version="1.0" encoding="UTF-8" standalone="no"?>
<svg
   viewBox="0 0 24 24"
   version="1.1"
   id="svg8"
   sodipodi:docname="TREEITEM_GROUP.svg"
   inkscape:version="1.1.1 (3bf5ae0d25, 2021-09-20)"
   xmlns:inkscape="http://www.inkscape.org/namespaces/inkscape"
   xmlns:sodipodi="http://sodipodi.sourceforge.net/DTD/sodipodi-0.dtd"
   xmlns="http://www.w3.org/2000/svg"
   xmlns:svg="http://www.w3.org/2000/svg">
  <defs
     id="defs12" />
  <sodipodi:namedview
     id="namedview10"
     pagecolor="#ffffff"
     bordercolor="#666666"
     borderopacity="1.0"
     inkscape:pageshadow="2"
     inkscape:pageopacity="0.0"
     inkscape:pagecheckerboard="0"
     showgrid="false"
     showguides="true"
     inkscape:guide-bbox="true"
     inkscape:zoom="33.833333"
     inkscape:cx="11.985222"
     inkscape:cy="12.014778"
     inkscape:window-width="1920"
     inkscape:window-height="1001"
     inkscape:window-x="-9"
     inkscape:window-y="-9"
     inkscape:window-maximized="1"
     inkscape:current-layer="svg8">
    <sodipodi:guide
       position="12,3.95"
       orientation="1,0"
       id="guide850" />
    <sodipodi:guide
       position="12,3.95"
       orientation="0,-1"
       id="guide852" />
    <sodipodi:guide
       position="12,8.65"
       orientation="0,-1"
       id="guide892" />
    <sodipodi:guide
       position="12,11"
       orientation="0,-1"
       id="guide894" />
  </sodipodi:namedview>
  <path
     fill="none"
     d="M 0,0 H 24 V 24 H 0 Z"
     id="path2" />
  <path
     d="m 12.514,1.309 8.771,5.262 c 0.324234,0.1941054 0.324234,0.6638946 0,0.858 L 12,13 2.715,7.429 C 2.3907665,7.2348946 2.3907665,6.7651054 2.715,6.571 l 8.77,-5.262 c 0.316932,-0.1904131 0.713068,-0.1904131 1.03,0 z M 12,3.332 5.887,7 12,10.668 18.113,7 Z"
     id="path4"
     sodipodi:nodetypes="cccccccccccccc"
     style="fill:#37c871;fill-opacity:1" />
  <path
     d="m 20.083,15.2 1.202,0.721 c 0.324234,0.194105 0.324234,0.663895 0,0.858 l -8.77,5.262 c -0.316932,0.190413 -0.713068,0.190413 -1.03,0 L 2.7149995,16.779 c -0.324233,-0.194105 -0.324233,-0.663895 0,-0.858 L 3.9169995,15.2 12,20.05 Z"
     id="path1077"
     style="fill:#b380ff;fill-opacity:1" />
  <path
     d="m 20.083,10.5 1.202,0.721 c 0.324234,0.194105 0.324234,0.663895 0,0.858 L 12,17.65 2.715,12.079 c -0.3242335,-0.194105 -0.3242335,-0.663895 0,-0.858 L 3.9169999,10.5 12,15.35 Z"
     id="path1289"
     style="fill:#5f8dd3;fill-opacity:1" />
</svg>
