<?xml version="1.0" encoding="UTF-8" standalone="no"?>
<svg
   width="16"
   height="16"
   fill="currentColor"
   class="bi bi-box-arrow-in-down-right"
   viewBox="0 0 16 16"
   version="1.1"
   id="svg6"
   sodipodi:docname="IMPORT.svg"
   inkscape:version="1.1.1 (3bf5ae0d25, 2021-09-20)"
   xmlns:inkscape="http://www.inkscape.org/namespaces/inkscape"
   xmlns:sodipodi="http://sodipodi.sourceforge.net/DTD/sodipodi-0.dtd"
   xmlns="http://www.w3.org/2000/svg"
   xmlns:svg="http://www.w3.org/2000/svg">
  <defs
     id="defs10" />
  <sodipodi:namedview
     id="namedview8"
     pagecolor="#ffffff"
     bordercolor="#666666"
     borderopacity="1.0"
     inkscape:pageshadow="2"
     inkscape:pageopacity="0.0"
     inkscape:pagecheckerboard="0"
     showgrid="false"
     inkscape:zoom="50.75"
     inkscape:cx="7.9901478"
     inkscape:cy="8.0098522"
     inkscape:window-width="1920"
     inkscape:window-height="1001"
     inkscape:window-x="-9"
     inkscape:window-y="-9"
     inkscape:window-maximized="1"
     inkscape:current-layer="svg6" />
  <path
     fill-rule="evenodd"
     d="M6.364 2.5a.5.5 0 0 1 .5-.5H13.5A1.5 1.5 0 0 1 15 3.5v10a1.5 1.5 0 0 1-1.5 1.5h-10A1.5 1.5 0 0 1 2 13.5V6.864a.5.5 0 1 1 1 0V13.5a.5.5 0 0 0 .5.5h10a.5.5 0 0 0 .5-.5v-10a.5.5 0 0 0-.5-.5H6.864a.5.5 0 0 1-.5-.5z"
     id="path2"
     style="fill:#4d4d4d" />
  <path
     fill-rule="evenodd"
     d="M11 10.5a.5.5 0 0 1-.5.5h-5a.5.5 0 0 1 0-1h3.793L1.146 1.854a.5.5 0 1 1 .708-.708L10 9.293V5.5a.5.5 0 0 1 1 0v5z"
     id="path4"
     style="fill:#37c871;fill-opacity:1" />
</svg>
